<mxfile host="app.diagrams.net" agent="Mozilla/5.0 (Windows NT 10.0; Win64; x64) AppleWebKit/537.36 (KHTML, like Gecko) Chrome/131.0.0.0 Safari/537.36" version="25.0.1">
  <diagram name="PÃ¡gina-1" id="Zd-YOFRQ54izxJF7CTdH">
    <mxGraphModel>
      <root>
        <mxCell id="0" />
        <mxCell id="1" parent="0" />
        <mxCell id="2" value="Sub-processes" style="whiteSpace=wrap;strokeWidth=2;" vertex="1" parent="1">
          <mxGeometry x="8" y="500" width="672" height="163" as="geometry" />
        </mxCell>
        <mxCell id="3" value="Decision Points" style="whiteSpace=wrap;strokeWidth=2;" vertex="1" parent="1">
          <mxGeometry x="525" y="41" width="140" height="35" as="geometry" />
        </mxCell>
        <mxCell id="4" value="Main Process" style="whiteSpace=wrap;strokeWidth=2;" vertex="1" parent="1">
          <mxGeometry x="700" y="8" width="486" height="794" as="geometry" />
        </mxCell>
        <mxCell id="5" value="Start" style="ellipse;aspect=fixed;strokeWidth=2;whiteSpace=wrap;" vertex="1" parent="1">
          <mxGeometry x="812" y="33" width="51" height="51" as="geometry" />
        </mxCell>
        <mxCell id="6" value="Decision 1" style="whiteSpace=wrap;strokeWidth=2;" vertex="1" parent="1">
          <mxGeometry x="771" y="134" width="133" height="49" as="geometry" />
        </mxCell>
        <mxCell id="7" value="Decision 2" style="whiteSpace=wrap;strokeWidth=2;" vertex="1" parent="1">
          <mxGeometry x="916" y="256" width="133" height="49" as="geometry" />
        </mxCell>
        <mxCell id="8" value="Decision 3" style="whiteSpace=wrap;strokeWidth=2;" vertex="1" parent="1">
          <mxGeometry x="916" y="378" width="133" height="49" as="geometry" />
        </mxCell>
        <mxCell id="9" value="Decision 4" style="whiteSpace=wrap;strokeWidth=2;" vertex="1" parent="1">
          <mxGeometry x="1005" y="557" width="133" height="49" as="geometry" />
        </mxCell>
        <mxCell id="10" value="End" style="ellipse;aspect=fixed;strokeWidth=2;whiteSpace=wrap;" vertex="1" parent="1">
          <mxGeometry x="1041" y="736" width="41" height="41" as="geometry" />
        </mxCell>
        <mxCell id="11" value="Sub-process 1" style="ellipse;aspect=fixed;strokeWidth=2;whiteSpace=wrap;" vertex="1" parent="1">
          <mxGeometry x="43" y="525" width="113" height="113" as="geometry" />
        </mxCell>
        <mxCell id="12" value="Sub-process 2" style="ellipse;aspect=fixed;strokeWidth=2;whiteSpace=wrap;" vertex="1" parent="1">
          <mxGeometry x="206" y="525" width="113" height="113" as="geometry" />
        </mxCell>
        <mxCell id="13" value="Sub-process 3" style="ellipse;aspect=fixed;strokeWidth=2;whiteSpace=wrap;" vertex="1" parent="1">
          <mxGeometry x="369" y="525" width="113" height="113" as="geometry" />
        </mxCell>
        <mxCell id="14" value="Sub-process 4" style="ellipse;aspect=fixed;strokeWidth=2;whiteSpace=wrap;" vertex="1" parent="1">
          <mxGeometry x="531" y="525" width="113" height="113" as="geometry" />
        </mxCell>
        <mxCell id="15" value="Condition 1" style="curved=1;startArrow=none;endArrow=block;exitX=0.94;exitY=0.99;entryX=0.49;entryY=-0.01;" edge="1" parent="1" source="6" target="7">
          <mxGeometry relative="1" as="geometry">
            <Array as="points">
              <mxPoint x="982" y="219" />
            </Array>
          </mxGeometry>
        </mxCell>
        <mxCell id="16" value="Condition 2" style="curved=1;startArrow=none;endArrow=block;exitX=0.86;exitY=0.99;entryX=0.86;entryY=-0.01;" edge="1" parent="1" source="7" target="8">
          <mxGeometry relative="1" as="geometry">
            <Array as="points">
              <mxPoint x="1104" y="341" />
            </Array>
          </mxGeometry>
        </mxCell>
        <mxCell id="17" value="Condition 3" style="curved=1;startArrow=none;endArrow=block;exitX=0.77;exitY=0.99;entryX=0.5;entryY=0;" edge="1" parent="1" source="8" target="9">
          <mxGeometry relative="1" as="geometry">
            <Array as="points">
              <mxPoint x="1072" y="463" />
            </Array>
          </mxGeometry>
        </mxCell>
        <mxCell id="18" value="Condition 4" style="curved=1;startArrow=none;endArrow=block;exitX=0.58;exitY=1;entryX=0.88;entryY=0;" edge="1" parent="1" source="9" target="10">
          <mxGeometry relative="1" as="geometry">
            <Array as="points">
              <mxPoint x="1104" y="663" />
              <mxPoint x="1104" y="700" />
            </Array>
          </mxGeometry>
        </mxCell>
        <mxCell id="19" value="" style="curved=1;startArrow=none;endArrow=block;exitX=0.5;exitY=0.99;entryX=0.5;entryY=-0.01;" edge="1" parent="1" source="5" target="6">
          <mxGeometry relative="1" as="geometry">
            <Array as="points" />
          </mxGeometry>
        </mxCell>
        <mxCell id="20" value="Option 1" style="curved=1;startArrow=none;endArrow=block;exitX=0.24;exitY=0.99;entryX=1;entryY=0.44;" edge="1" parent="1" source="6" target="11">
          <mxGeometry relative="1" as="geometry">
            <Array as="points">
              <mxPoint x="752" y="219" />
              <mxPoint x="752" y="500" />
            </Array>
          </mxGeometry>
        </mxCell>
        <mxCell id="21" value="Option 2" style="curved=1;startArrow=none;endArrow=block;exitX=0.5;exitY=0.99;entryX=1;entryY=0.43;" edge="1" parent="1" source="6" target="12">
          <mxGeometry relative="1" as="geometry">
            <Array as="points">
              <mxPoint x="837" y="500" />
            </Array>
          </mxGeometry>
        </mxCell>
        <mxCell id="22" value="" style="curved=1;startArrow=none;endArrow=block;exitX=0.35;exitY=0.99;entryX=0.35;entryY=-0.01;" edge="1" parent="1" source="7" target="8">
          <mxGeometry relative="1" as="geometry">
            <Array as="points">
              <mxPoint x="933" y="341" />
            </Array>
          </mxGeometry>
        </mxCell>
        <mxCell id="23" value="Option A" style="curved=1;startArrow=none;endArrow=block;exitX=0.22;exitY=0.99;entryX=0.99;entryY=0.41;" edge="1" parent="1" source="8" target="13">
          <mxGeometry relative="1" as="geometry">
            <Array as="points">
              <mxPoint x="890" y="463" />
              <mxPoint x="890" y="500" />
            </Array>
          </mxGeometry>
        </mxCell>
        <mxCell id="24" value="Option B" style="curved=1;startArrow=none;endArrow=block;exitX=0.48;exitY=0.99;entryX=1.01;entryY=0.39;" edge="1" parent="1" source="8" target="14">
          <mxGeometry relative="1" as="geometry">
            <Array as="points">
              <mxPoint x="976" y="463" />
              <mxPoint x="976" y="500" />
            </Array>
          </mxGeometry>
        </mxCell>
        <mxCell id="25" value="" style="curved=1;startArrow=none;endArrow=block;exitX=0.15;exitY=1;entryX=0.01;entryY=0.31;" edge="1" parent="1" source="9" target="10">
          <mxGeometry relative="1" as="geometry">
            <Array as="points">
              <mxPoint x="914" y="663" />
              <mxPoint x="914" y="700" />
            </Array>
          </mxGeometry>
        </mxCell>
        <mxCell id="26" value="" style="curved=1;startArrow=none;endArrow=block;exitX=0.5;exitY=1;entryX=0.01;entryY=0.34;" edge="1" parent="1" source="14" target="10">
          <mxGeometry relative="1" as="geometry">
            <Array as="points">
              <mxPoint x="588" y="663" />
              <mxPoint x="886" y="700" />
            </Array>
          </mxGeometry>
        </mxCell>
      </root>
    </mxGraphModel>
  </diagram>
</mxfile>
